<?xml version="1.0" encoding="iso-8859-1"?>
<!-- Generator: Adobe Illustrator 19.0.0, SVG Export Plug-In . SVG Version: 6.00 Build 0)  -->
<svg version="1.1" id="Layer_1" xmlns="http://www.w3.org/2000/svg" xmlns:xlink="http://www.w3.org/1999/xlink" x="0px" y="0px"
	 viewBox="0 0 512 512" style="enable-background:new 0 0 512 512;" xml:space="preserve">
<circle style="fill:#4ACFD9;" cx="202.422" cy="312.962" r="191.136"/>
<path style="fill:#E6EAEA;" d="M202.424,444.35c-72.45,0-131.392-58.942-131.392-131.392c0-72.449,58.942-131.392,131.392-131.392
	c72.449,0,131.391,58.942,131.391,131.392C333.816,385.408,274.874,444.35,202.424,444.35z"/>
<path style="fill:#9BAAAB;" d="M202.424,393.121c-44.202,0-80.163-35.96-80.163-80.163s35.96-80.163,80.163-80.163
	c44.201,0,80.163,35.96,80.163,80.163S246.626,393.121,202.424,393.121z"/>
<path style="fill:#FF8C29;" d="M202.424,355.149c-23.264,0-42.191-18.927-42.191-42.191s18.927-42.191,42.191-42.191
	s42.191,18.927,42.191,42.191S225.688,355.149,202.424,355.149z"/>
<path style="fill:#0295AA;" d="M11.292,312.958c0,105.134,84.887,190.43,189.859,191.116V121.842
	C96.179,122.528,11.292,207.824,11.292,312.958z"/>
<path style="fill:#CDD4D5;" d="M71.033,312.958c0,72.024,58.254,130.689,130.12,131.375V181.582
	C129.287,182.269,71.033,240.934,71.033,312.958z"/>
<path style="fill:#365558;" d="M122.261,312.958c0,43.775,35.276,79.446,78.891,80.13v-37.972v-84.318v-37.972
	C157.537,233.512,122.261,269.182,122.261,312.958z"/>
<path style="fill:#F0353D;" d="M160.233,312.958c0,22.838,18.242,41.482,40.919,42.158v-84.318
	C178.475,271.476,160.233,290.121,160.233,312.958z"/>
<polygon style="fill:#9BAAAB;" points="390.323,225.695 282.923,225.695 393.307,115.311 500.707,115.311 "/>
<polygon style="fill:#E6EAEA;" points="282.923,118.295 282.923,225.695 393.307,115.311 393.307,7.911 "/>
<path d="M508.016,112.284c-1.225-2.957-4.109-4.884-7.309-4.884h-99.489V7.911c0-3.2-1.927-6.084-4.884-7.309
	c-2.953-1.224-6.358-0.548-8.621,1.715l-56.681,56.681c-0.002,0.002-0.004,0.003-0.005,0.005c-0.002,0.002-0.003,0.004-0.005,0.005
	l-53.692,53.692c-1.484,1.483-2.317,3.496-2.317,5.593v9.299c-23.085-9.073-47.444-13.678-72.589-13.678
	c-109.752,0-199.042,89.29-199.042,199.042S92.671,512,202.424,512s199.042-89.29,199.042-199.042
	c0-27.707-5.541-54.339-16.467-79.352h5.325c2.098,0,4.11-0.833,5.593-2.317l53.699-53.699c0.001-0.001,0.002-0.002,0.002-0.002
	l56.684-56.684C508.563,118.642,509.241,115.24,508.016,112.284z M385.396,112.035l-40.862,40.862V67.871l40.862-40.862V112.035z
	 M290.834,121.571l37.879-37.879v85.025L300.86,196.57l-9.372,9.372c-0.218-0.182-0.436-0.365-0.655-0.545v-65.823L290.834,121.571
	L290.834,121.571z M275.012,222.419l-19.977,19.977c-15.168-11.334-33.581-17.512-52.61-17.512
	c-48.564,0-88.074,39.51-88.074,88.074s39.51,88.074,88.074,88.074s88.074-39.51,88.074-88.074c0-22.307-8.542-43.737-23.668-59.982
	l19.37-19.37h10.739c18.701,22.24,28.966,50.278,28.966,79.352c0,68.088-55.394,123.48-123.48,123.48
	c-68.088,0-123.48-55.394-123.48-123.48s55.394-123.48,123.48-123.48c26.373,0,51.381,8.186,72.589,23.679v9.263H275.012z
	 M199.777,308.841c1.544,1.544,3.569,2.317,5.593,2.317c2.024,0,4.049-0.772,5.593-2.317l17.787-17.787
	c5.107,6.107,7.953,13.791,7.953,21.903c0,18.902-15.379,34.28-34.28,34.28c-18.903,0-34.28-15.379-34.28-34.28
	c0-18.902,15.378-34.28,34.28-34.28c4.736,0,9.306,0.955,13.539,2.79l-16.187,16.187
	C196.688,300.743,196.688,305.753,199.777,308.841z M227.693,269.737c-7.637-4.465-16.389-6.881-25.269-6.881
	c-27.627,0-50.102,22.475-50.102,50.102c0,27.626,22.475,50.102,50.102,50.102c27.626,0,50.102-22.476,50.102-50.102
	c0-12.359-4.496-24.039-12.55-33.128l15.658-15.658c12.175,13.28,19.042,30.683,19.042,48.786c0,39.84-32.412,72.252-72.252,72.252
	s-72.252-32.412-72.252-72.252s32.412-72.252,72.252-72.252c14.83,0,29.202,4.588,41.275,13.026L227.693,269.737z M202.424,496.178
	c-101.028,0-183.221-82.192-183.221-183.221s82.192-183.221,183.221-183.221c25.257,0,49.65,5.029,72.589,14.956v49.425
	c-21.805-13.415-46.608-20.463-72.588-20.463c-76.812,0-139.302,62.491-139.302,139.302s62.491,139.302,139.302,139.302
	c76.812,0,139.302-62.491,139.302-139.302c0-28.512-8.747-56.137-24.884-79.352h50.752c11.976,24.829,18.051,51.498,18.051,79.352
	C385.644,413.986,303.452,496.178,202.424,496.178z M387.047,217.784H372.5h-68.455c-0.326-0.348-0.659-0.69-0.988-1.035
	l8.992-8.992l27.852-27.852h85.025L387.047,217.784z M440.747,164.085h-85.025l40.862-40.862h85.025L440.747,164.085z"/>
<g>
</g>
<g>
</g>
<g>
</g>
<g>
</g>
<g>
</g>
<g>
</g>
<g>
</g>
<g>
</g>
<g>
</g>
<g>
</g>
<g>
</g>
<g>
</g>
<g>
</g>
<g>
</g>
<g>
</g>
</svg>
